<svg width="502" height="502" viewBox="0 0 502 502" fill="none" xmlns="http://www.w3.org/2000/svg">
<path d="M3.05176e-05 437.333C3.05176e-05 445.82 3.37145 453.96 9.37261 459.961C15.3738 465.962 23.5131 469.333 32 469.333H53.3334C53.3334 477.82 56.7048 485.96 62.7059 491.961C68.7071 497.962 76.8464 501.333 85.3334 501.333H405.333C413.82 501.333 421.96 497.962 427.961 491.961C433.962 485.96 437.333 477.82 437.333 469.333H458.667C467.154 469.333 475.293 465.962 481.294 459.961C487.295 453.96 490.667 445.82 490.667 437.333H3.05176e-05Z" fill="#CFCECC"/>
<path d="M192 405.333C234.43 405.319 275.119 388.458 305.122 358.455C335.124 328.452 351.986 287.764 352 245.333V213.333H32V245.333C32.0142 287.764 48.8758 328.452 78.8786 358.455C108.881 388.458 149.57 405.319 192 405.333ZM384 202.667V245.333C384 296.255 363.772 345.091 327.765 381.098C291.758 417.105 242.922 437.333 192 437.333C141.078 437.333 92.2425 417.105 56.2355 381.098C20.2285 345.091 3.12764e-05 296.255 3.05176e-05 245.333V138.667H384V202.667Z" fill="#EBEAE8"/>
<path d="M352 213.333V245.333C352 287.768 335.143 328.465 305.137 358.47C275.131 388.476 234.435 405.333 192 405.333C149.565 405.333 108.869 388.476 78.8629 358.47C48.8571 328.465 32 287.768 32 245.333V213.333H352Z" fill="#463325"/>
<path d="M85.3334 501.333H405.333C413.82 501.333 421.96 497.962 427.961 491.961C433.962 485.96 437.333 477.82 437.333 469.333H53.3334C53.3334 477.82 56.7048 485.96 62.7059 491.961C68.7071 497.962 76.8464 501.333 85.3334 501.333Z" fill="#CFCECC"/>
<path d="M3.05176e-05 437.333C3.05176e-05 445.82 3.37145 453.96 9.37261 459.961C15.3738 465.962 23.5131 469.333 32 469.333H458.667C467.154 469.333 475.293 465.962 481.294 459.961C487.295 453.96 490.667 445.82 490.667 437.333H3.05176e-05Z" fill="#C4C3C2"/>
<path d="M181.333 128C178.504 128 175.791 126.876 173.791 124.876C171.79 122.875 170.667 120.162 170.667 117.333C170.84 112.153 172.249 107.089 174.776 102.564C177.303 98.0382 180.875 94.1823 185.195 91.3173C190.635 86.7947 192 85.2053 192 81.8133C192 78.1973 190.325 76.48 185.163 72.2133C180.849 69.3425 177.283 65.483 174.762 60.9561C172.24 56.4292 170.836 51.3656 170.667 46.1867C170.839 41.0241 172.244 35.9777 174.764 31.4686C177.283 26.9596 180.845 23.1187 185.152 20.2667C190.325 16 192 14.2613 192 10.6667C192 7.83769 193.124 5.12458 195.124 3.12419C197.125 1.12381 199.838 0 202.667 0C205.496 0 208.209 1.12381 210.209 3.12419C212.21 5.12458 213.333 7.83769 213.333 10.6667C213.16 15.847 211.751 20.9109 209.224 25.4364C206.697 29.9618 203.125 33.8177 198.805 36.6827C193.365 41.2053 192 42.7947 192 46.1867C192 49.8027 193.675 51.52 198.837 55.7867C203.151 58.6575 206.717 62.517 209.238 67.0439C211.76 71.5708 213.164 76.6344 213.333 81.8133C213.161 86.9759 211.756 92.0223 209.237 96.5314C206.717 101.04 203.155 104.881 198.848 107.733C193.675 112 192 113.739 192 117.333C192 120.162 190.876 122.875 188.876 124.876C186.875 126.876 184.162 128 181.333 128ZM245.333 128C242.504 128 239.791 126.876 237.791 124.876C235.79 122.875 234.667 120.162 234.667 117.333C234.84 112.153 236.249 107.089 238.776 102.564C241.303 98.0382 244.875 94.1823 249.195 91.3173C254.635 86.7947 256 85.2053 256 81.8133C256 78.1973 254.325 76.48 249.163 72.2133C244.849 69.3425 241.283 65.483 238.762 60.9561C236.24 56.4292 234.836 51.3656 234.667 46.1867C234.839 41.0241 236.244 35.9777 238.764 31.4686C241.283 26.9596 244.845 23.1187 249.152 20.2667C254.325 16 256 14.2613 256 10.6667C256 7.83769 257.124 5.12458 259.124 3.12419C261.125 1.12381 263.838 0 266.667 0C269.496 0 272.209 1.12381 274.209 3.12419C276.21 5.12458 277.333 7.83769 277.333 10.6667C277.16 15.847 275.751 20.9109 273.224 25.4364C270.697 29.9618 267.125 33.8177 262.805 36.6827C257.365 41.2053 256 42.7947 256 46.1867C256 49.8027 257.675 51.52 262.837 55.7867C267.151 58.6575 270.717 62.517 273.238 67.0439C275.76 71.5708 277.164 76.6344 277.333 81.8133C277.161 86.9759 275.756 92.0223 273.237 96.5314C270.717 101.04 267.155 104.881 262.848 107.733C257.675 112 256 113.739 256 117.333C256 120.162 254.876 122.875 252.876 124.876C250.875 126.876 248.162 128 245.333 128ZM117.333 128C114.504 128 111.791 126.876 109.791 124.876C107.791 122.875 106.667 120.162 106.667 117.333C106.84 112.153 108.249 107.089 110.776 102.564C113.303 98.0382 116.875 94.1823 121.195 91.3173C126.635 86.7947 128 85.2053 128 81.8133C128 78.1973 126.325 76.48 121.163 72.2133C116.849 69.3425 113.283 65.483 110.762 60.9561C108.24 56.4292 106.836 51.3656 106.667 46.1867C106.839 41.0241 108.244 35.9777 110.764 31.4686C113.283 26.9596 116.845 23.1187 121.152 20.2667C126.325 16 128 14.2613 128 10.6667C128 7.83769 129.124 5.12458 131.124 3.12419C133.125 1.12381 135.838 0 138.667 0C141.496 0 144.209 1.12381 146.209 3.12419C148.21 5.12458 149.333 7.83769 149.333 10.6667C149.16 15.847 147.751 20.9109 145.224 25.4364C142.697 29.9618 139.125 33.8177 134.805 36.6827C129.365 41.2053 128 42.7947 128 46.1867C128 49.8027 129.675 51.52 134.837 55.7867C139.151 58.6575 142.717 62.517 145.238 67.0439C147.76 71.5708 149.164 76.6344 149.333 81.8133C149.161 86.9759 147.756 92.0223 145.236 96.5314C142.717 101.04 139.155 104.881 134.848 107.733C129.675 112 128 113.739 128 117.333C128 120.162 126.876 122.875 124.876 124.876C122.875 126.876 120.162 128 117.333 128Z" fill="#DFD4C3"/>
<path d="M428.8 192H384V213.333H428.8C442.375 213.347 455.39 218.746 464.988 228.345C474.587 237.944 479.986 250.959 480 264.533C479.297 285.721 471.396 306.037 457.6 322.133C443.697 339.341 425.289 352.351 404.427 359.712C391.746 363.718 378.127 363.64 365.493 359.488L349.867 354.272C347.733 357.323 345.6 360.384 343.36 363.307C341.12 366.229 338.741 369.056 336.309 371.84C336.886 372.234 337.501 372.57 338.144 372.843L358.773 379.733C367.288 382.561 376.202 384.001 385.173 384C394.06 384.073 402.899 382.69 411.339 379.904C436 371.241 457.767 355.893 474.208 335.573C491.077 315.674 500.646 290.612 501.333 264.533C501.314 245.302 493.665 226.865 480.067 213.266C466.469 199.668 448.031 192.02 428.8 192Z" fill="#EBEAE8"/>
<path d="M384 192V213.333H416V192H384ZM373.333 368C373.332 365.828 373.775 363.679 374.635 361.685C371.55 361.189 368.508 360.454 365.536 359.488L349.867 354.272C347.733 357.323 345.6 360.384 343.36 363.307C341.12 366.229 338.741 369.056 336.309 371.84C336.886 372.234 337.501 372.57 338.144 372.843L358.773 379.733C367.288 382.561 376.202 384.001 385.173 384C385.995 384 386.741 383.84 387.552 383.819C383.655 383.382 380.055 381.53 377.434 378.614C374.813 375.698 373.353 371.921 373.333 368Z" fill="#DAD9D7"/>
<path d="M85.3334 480H405.333C409.816 480.006 414.247 480.959 418.335 482.798C422.423 484.636 426.077 487.318 429.056 490.667C434.367 484.829 437.317 477.225 437.333 469.333H53.3334C53.3495 477.225 56.2998 484.829 61.6107 490.667C64.59 487.318 68.2436 484.636 72.3319 482.798C76.4202 480.959 80.8508 480.006 85.3334 480Z" fill="#ADABA8"/>
<path d="M53.3334 458.667H458.667C464.956 458.659 471.106 460.515 476.341 464C480.751 461.089 484.368 457.128 486.868 452.474C489.368 447.819 490.674 442.617 490.667 437.333H2.80537e-05C-0.0069778 442.617 1.2983 447.819 3.79866 452.474C6.29902 457.128 9.91619 461.089 14.3254 464C19.5604 460.515 25.7109 458.659 32 458.667H53.3334Z" fill="#EBEAE8"/>
<path d="M309.333 138.667V341.333C309.336 345.901 309.015 350.464 308.373 354.987C306.323 369.319 301.042 382.999 292.93 394.991C284.818 406.984 274.087 416.976 261.547 424.213C239.401 432.94 215.803 437.392 192 437.333C202.448 437.341 212.534 433.51 220.341 426.568C228.149 419.626 233.133 410.057 234.347 399.68V399.573C234.563 397.947 234.67 396.308 234.667 394.667V138.667H309.333Z" fill="white"/>
<path d="M309.333 213.333V341.333C309.336 345.901 309.015 350.464 308.373 354.987C288.298 376.411 262.672 391.846 234.347 399.573C234.563 397.947 234.67 396.308 234.667 394.667V213.333H309.333Z" fill="#5C4534"/>
<path d="M144 431.253C102.783 420.611 66.2719 396.573 40.2056 362.919C14.1393 329.265 -0.00369331 287.902 3.1253e-05 245.333V138.667H64V320C63.9792 328.246 64.8373 336.47 66.56 344.533C70.8107 364.475 80.1896 382.963 93.7705 398.171C107.351 413.38 124.665 424.782 144 431.253Z" fill="#D4D3D1"/>
<path d="M66.56 344.533C44.1241 316.343 31.9375 281.362 32 245.333V213.333H64V320C63.9792 328.246 64.8373 336.47 66.56 344.533Z" fill="#28100C"/>
<path d="M307.403 288C306.751 288.003 306.101 287.942 305.461 287.819C302.683 287.301 300.224 285.701 298.624 283.371C297.024 281.041 296.414 278.171 296.928 275.392C297.515 272.192 297.995 268.992 298.251 265.717C298.523 262.916 299.892 260.336 302.058 258.54C304.225 256.744 307.013 255.876 309.817 256.127C312.62 256.377 315.21 257.725 317.024 259.877C318.837 262.029 319.727 264.811 319.499 267.616C319.143 271.548 318.613 275.435 317.909 279.275C317.455 281.728 316.155 283.945 314.236 285.539C312.316 287.134 309.898 288.004 307.403 288ZM192 384C189.171 384 186.458 382.876 184.458 380.876C182.457 378.875 181.333 376.162 181.333 373.333C181.333 370.504 182.457 367.791 184.458 365.791C186.458 363.79 189.171 362.667 192 362.667C211.675 362.714 230.977 357.3 247.757 347.027C264.536 336.753 278.136 322.025 287.04 304.48C287.677 303.233 288.554 302.123 289.62 301.214C290.687 300.306 291.921 299.616 293.254 299.185C294.587 298.754 295.991 298.589 297.388 298.7C298.784 298.812 300.145 299.197 301.392 299.835C302.639 300.472 303.749 301.349 304.658 302.415C305.566 303.481 306.256 304.716 306.687 306.049C307.118 307.381 307.283 308.786 307.172 310.182C307.06 311.579 306.675 312.939 306.037 314.187C295.351 335.237 279.033 352.908 258.9 365.234C238.766 377.559 215.607 384.056 192 384Z" fill="white"/>
<path d="M352 373.333C351.976 377.657 351.619 381.972 350.933 386.24C345.92 415.36 324.48 437.333 298.667 437.333C298.344 437.326 298.023 437.291 297.707 437.227C295.04 436.587 288 433.28 288 416C288 394.667 309.333 394.667 309.333 373.333C309.333 352 288 352 288 330.667C288 313.387 295.04 310.08 297.707 309.44C298.023 309.376 298.344 309.34 298.667 309.333C304.096 309.309 309.484 310.285 314.56 312.213C326.197 317.489 335.985 326.132 342.66 337.028C349.334 347.923 352.587 360.57 352 373.333Z" fill="#785745"/>
<path d="M288 330.667C288 352 309.333 352 309.333 373.333C309.333 394.667 288 394.667 288 416C288 433.28 295.04 436.587 297.707 437.227C285.633 436.21 274.218 431.287 265.192 423.203C256.165 415.12 250.018 404.316 247.68 392.427C246.133 386.18 245.345 379.769 245.333 373.333C245.333 338.453 268.693 309.973 297.707 309.44C295.04 310.08 288 313.387 288 330.667Z" fill="#5C4534"/>
<path d="M298.667 405.333C296.03 405.265 293.403 405.002 290.805 404.544C288.914 408.063 287.948 412.005 288 416C288 433.28 295.04 436.587 297.707 437.227C298.023 437.291 298.344 437.326 298.667 437.333C328.107 437.333 352 408.64 352 373.333C351.989 369.361 351.672 365.396 351.051 361.472C348.833 373.758 342.376 384.877 332.804 392.892C323.232 400.907 311.151 405.31 298.667 405.333Z" fill="#6B4D3D"/>
<path d="M288 416C287.948 412.005 288.914 408.063 290.805 404.544C296.533 393.707 309.333 389.909 309.333 373.333C309.333 352 288 352 288 330.667C288 313.387 295.04 310.08 297.707 309.44C286.567 309.763 275.899 314.009 267.584 321.429C266.949 324.467 266.641 327.564 266.667 330.667C266.667 352 288 352 288 373.333V373.728C287.791 377.416 286.446 380.948 284.15 383.841C281.854 386.734 278.719 388.846 275.175 389.887C271.631 390.928 267.852 390.847 264.356 389.656C260.86 388.464 257.818 386.22 255.648 383.232C250.901 376.784 247.697 369.332 246.283 361.451C245.661 365.381 245.344 369.354 245.333 373.333C245.137 383.07 247.02 392.736 250.857 401.687C254.694 410.637 260.397 418.666 267.584 425.237C275.899 432.658 286.567 436.904 297.707 437.227C295.04 436.587 288 433.28 288 416Z" fill="#4B382E"/>
<path d="M346.475 369.696C346.477 356.324 342.267 343.292 334.443 332.448C333.985 331.903 333.414 331.465 332.769 331.164C332.124 330.864 331.421 330.708 330.709 330.708C329.998 330.708 329.295 330.864 328.65 331.164C328.005 331.465 327.434 331.903 326.976 332.448C325.967 333.652 325.409 335.17 325.398 336.74C325.386 338.311 325.921 339.837 326.912 341.056C333.452 350.502 336.651 361.862 336 373.333C336.021 378.654 335.402 383.958 334.155 389.131C332.912 395.068 330.438 400.679 326.891 405.6C325.882 406.81 325.33 408.335 325.33 409.909C325.33 411.484 325.882 413.009 326.891 414.219C327.35 414.775 327.927 415.223 328.58 415.531C329.232 415.839 329.945 415.998 330.667 415.998C331.388 415.998 332.101 415.839 332.754 415.531C333.407 415.223 333.983 414.775 334.443 414.219C343.06 402.383 347.373 387.957 346.667 373.333C346.667 372.043 346.528 370.923 346.475 369.696Z" fill="#AD836D"/>
<path d="M326.891 414.219C327.35 414.775 327.927 415.223 328.58 415.531C329.232 415.839 329.945 415.998 330.667 415.998C331.388 415.998 332.101 415.839 332.754 415.531C333.407 415.223 333.983 414.775 334.443 414.219C342.734 402.763 347.005 388.887 346.592 374.752C343.405 381.643 338.782 387.775 333.035 392.736C331.701 397.337 329.626 401.689 326.891 405.621C325.888 406.829 325.339 408.35 325.339 409.92C325.339 411.49 325.888 413.011 326.891 414.219Z" fill="#8F6C5A"/>
<path d="M244.907 396.267C241.444 397.544 237.92 398.648 234.347 399.573C226.19 401.93 217.835 403.536 209.387 404.373C214.659 416.395 223.879 426.254 235.52 432.32C245.654 429.995 255.574 426.82 265.173 422.827C257.34 415.162 251.61 405.612 248.533 395.093C247.253 395.52 246.08 395.947 244.907 396.267Z" fill="#9E9D9B"/>
<path d="M277.227 314.773C275.525 313.771 273.74 312.914 271.893 312.213C266.818 310.285 261.43 309.309 256 309.333C255.678 309.34 255.356 309.376 255.04 309.44C247.92 309.564 240.934 311.393 234.667 314.773C224.556 320.75 216.246 329.346 210.614 339.653C204.982 349.96 202.236 361.596 202.667 373.333C202.678 379.769 203.466 386.18 205.013 392.427C206.069 396.545 207.534 400.547 209.387 404.373C217.835 403.536 226.19 401.93 234.347 399.573C237.92 398.648 241.444 397.544 244.907 396.267C246.08 395.947 247.253 395.52 248.533 395.093C248.475 395.036 248.438 394.961 248.427 394.88C248.115 394.083 247.865 393.263 247.68 392.427C246.133 386.18 245.345 379.769 245.333 373.333C244.919 361.611 247.661 349.992 253.271 339.691C258.881 329.39 267.154 320.785 277.227 314.773Z" fill="#28100C"/>
<path d="M446.293 343.04C465.184 361.92 462.091 395.52 439.467 418.133C427.974 430.025 412.266 436.921 395.733 437.333C389.944 437.451 384.189 436.418 378.802 434.294C373.415 432.17 368.503 428.997 364.352 424.96C364.266 424.864 364.194 424.757 364.139 424.64C362.965 423.147 359.232 416.427 371.189 404.48C384.843 390.827 398.507 404.48 412.16 390.827C425.813 377.173 412.16 363.52 425.824 349.867C437.781 337.92 444.501 341.653 445.995 342.827C446.104 342.884 446.204 342.955 446.293 343.04Z" fill="#785745"/>
<path d="M371.2 349.867C393.717 327.36 427.115 324.16 446.005 342.827C444.512 341.653 437.792 337.92 425.835 349.867C412.171 363.52 425.835 377.173 412.171 390.827C398.507 404.48 384.853 390.827 371.2 404.48C359.243 416.427 362.976 423.147 364.149 424.64C359.391 419.607 355.865 413.539 353.848 406.913C351.831 400.287 351.377 393.284 352.523 386.453C354.585 372.545 361.145 359.695 371.2 349.867Z" fill="#5C4534"/>
<path d="M386.549 397.76C380.735 397.875 375.203 400.292 371.168 404.48C359.211 416.427 362.944 423.147 364.117 424.64C364.173 424.757 364.244 424.864 364.331 424.96C368.484 429 373.399 432.174 378.79 434.298C384.181 436.422 389.94 437.454 395.733 437.333C412.266 436.921 427.974 430.025 439.467 418.133C440.128 417.472 440.608 416.715 441.237 416C431.353 418.957 420.797 418.791 411.009 415.527C401.222 412.263 392.68 406.058 386.549 397.76Z" fill="#6B4D3D"/>
<path d="M432.491 334.187C430.128 333.25 427.558 332.96 425.046 333.346C422.534 333.732 420.17 334.781 418.197 336.384C417.136 337.277 416.114 338.216 415.136 339.2C401.472 352.853 415.136 366.507 401.472 380.16L401.269 380.363C399.254 382.207 396.763 383.45 394.077 383.951C391.392 384.452 388.62 384.192 386.075 383.2C383.53 382.208 381.313 380.523 379.676 378.336C378.039 376.15 377.046 373.548 376.811 370.827C376.104 359.431 379.323 348.138 385.931 338.827C380.541 341.82 375.585 345.534 371.2 349.867C361.145 359.695 354.585 372.545 352.523 386.453C351.789 392.223 352.059 398.077 353.323 403.755C354.84 411.616 358.6 418.869 364.149 424.64C362.976 423.147 359.243 416.427 371.2 404.48C375.235 400.292 380.767 397.875 386.581 397.76C395.115 397.227 403.648 399.349 412.181 390.827C425.845 377.173 412.181 363.52 425.845 349.867C437.792 337.92 444.523 341.653 446.016 342.827C442.15 339.047 437.546 336.105 432.491 334.187Z" fill="#4B382E"/>
<path d="M447.147 369.419C446.593 367.026 445.289 364.873 443.424 363.275C442.509 362.768 441.439 362.615 440.419 362.845C439.398 363.075 438.497 363.672 437.888 364.523C436.724 365.97 436.058 367.755 435.989 369.611C435.84 371.435 435.989 373.269 436.064 375.093C436.107 379.966 434.965 384.776 432.736 389.109C431.349 391.797 429.899 394.443 428.608 397.141C427.819 398.795 426.059 402.357 426.88 404.192C427.584 405.771 430.411 405.323 431.755 405.088C433.839 404.676 435.742 403.621 437.195 402.069C440.653 398.563 443.303 394.344 444.96 389.707C447.912 383.372 448.681 376.237 447.147 369.419Z" fill="#AD836D"/>
</svg>
